<?xml version="1.0"?>
<svg xmlns="http://www.w3.org/2000/svg" xmlns:xlink="http://www.w3.org/1999/xlink" xmlns:svgjs="http://svgjs.com/svgjs" version="1.1" width="512" height="512" x="0" y="0" viewBox="0 0 512 512" style="enable-background:new 0 0 512 512" xml:space="preserve" class=""><g><g xmlns="http://www.w3.org/2000/svg"><path d="m365.41 466.331h-218.82c-25.689 0-48.614-16.121-57.303-40.296l-55.035-153.12h443.497l-55.035 153.12c-8.69 24.175-31.615 40.296-57.304 40.296z" fill="#da1919" data-original="#ecf4ff" style="" class=""/><path d="m447.302 272.915-55.035 153.121c-8.689 24.174-31.614 40.296-57.303 40.296h30.446c25.689 0 48.614-16.121 57.303-40.296l55.035-153.121z" fill="#da1919" data-original="#ddeafb" style="" class=""/><path d="m72.924 512h366.153c20.797 0 37.657-16.86 37.657-37.657 0-4.425-3.587-8.012-8.012-8.012h-425.444c-4.425 0-8.012 3.587-8.012 8.012 0 20.797 16.86 37.657 37.658 37.657z" fill="#da1919" data-original="#cbe2ff" style="" class=""/><path d="m468.722 466.331h-30.446c4.425 0 8.012 3.587 8.012 8.012 0 20.797-16.86 37.657-37.657 37.657h30.446c20.797 0 37.657-16.86 37.657-37.657-.001-4.425-3.587-8.012-8.012-8.012z" fill="#da1919" data-original="#bed8fb" style="" class=""/><path d="m26.732 288.138h458.535c12.662 0 22.927-10.223 22.927-22.834 0-12.611-10.265-22.834-22.927-22.834h-458.535c-12.662 0-22.927 10.223-22.927 22.834.001 12.61 10.265 22.834 22.927 22.834z" fill="#da1919" data-original="#cbe2ff" style="" class=""/><path d="m485.268 242.469h-30.446c12.662 0 22.927 10.223 22.927 22.835 0 12.611-10.265 22.835-22.927 22.835h30.446c12.662 0 22.927-10.224 22.927-22.835-.001-12.612-10.265-22.835-22.927-22.835z" fill="#da1919" data-original="#bed8fb" style="" class=""/><g><path d="m367.165 73.362c23.053-36.2 77.059-65.811 119.953-65.751 11.011.015 20.756 9.057 21.067 20.064.331 11.717-9.112 21.325-20.77 21.26-35.355-.195-67.974 19.148-87.07 48.903l-59.407 92.57c-5.067 7.896-13.804 12.67-23.186 12.67h-109.589c-11.989 0-22.601-7.753-26.246-19.174l-10.53-32.994c-1.985-6.221 2.656-12.574 9.186-12.574h142.189c1.663 0 3.755-1.148 4.648-2.551z" fill="#da1919" data-original="#ecf4ff" style="" class=""/></g><path d="m487.118 7.611c-6.878-.009-14.043.752-21.319 2.173 3.385 1.66 6.315 4.186 8.426 7.271 2.05 2.995 3.989 7.728 3.514 10.62-1.181 7.198-18.099 10.044-20.593 10.495-31.091 5.62-75.65 44.769-97.392 75.478-23.512 33.21-29.248 45.575-49.262 76.761-5.067 7.896-13.804 12.67-23.186 12.67h30.446c9.382 0 18.119-4.775 23.186-12.67l59.407-92.57c19.095-29.755 51.715-49.098 87.07-48.903 11.658.064 21.102-9.543 20.77-21.26-.311-11.007-10.055-20.049-21.067-20.065z" fill="#da1919" data-original="#ddeafb" style="" class=""/><g><g><path d="m256 99.55c-1.947 0-3.896-.743-5.383-2.229-7.068-7.069-10.961-16.467-10.961-26.464s3.893-19.395 10.961-26.464c8.657-8.657 8.657-22.743 0-31.4-2.972-2.972-2.972-7.792 0-10.764 2.973-2.972 7.792-2.972 10.765 0 14.592 14.592 14.592 38.336 0 52.928-8.657 8.657-8.657 22.742 0 31.399 2.972 2.972 2.972 7.792 0 10.764-1.486 1.487-3.435 2.23-5.382 2.23z" fill="#da1919" data-original="#e2dfe3" style="" class=""/></g></g><g><g><g><path d="m301.669 115.15c-1.948 0-3.896-.743-5.383-2.229-11.487-11.488-11.487-30.179 0-41.667 5.552-5.553 5.552-14.587 0-20.139-2.972-2.973-2.972-7.792.001-10.764 2.972-2.973 7.792-2.973 10.764 0 11.487 11.488 11.487 30.18 0 41.668-5.552 5.552-5.552 14.587 0 20.139 2.972 2.973 2.972 7.792-.001 10.764-1.485 1.485-3.434 2.228-5.381 2.228z" fill="#da1919" data-original="#e2dfe3" style="" class=""/></g></g><g><g><path d="m210.331 115.15c-1.948 0-3.896-.743-5.383-2.229-11.487-11.488-11.487-30.179 0-41.667 5.552-5.553 5.552-14.587 0-20.139-2.972-2.973-2.972-7.792.001-10.764 2.972-2.973 7.792-2.973 10.764 0 11.487 11.488 11.487 30.18 0 41.668-5.552 5.552-5.552 14.587 0 20.139 2.972 2.973 2.972 7.792-.001 10.764-1.485 1.485-3.434 2.228-5.381 2.228z" fill="#da1919" data-original="#e2dfe3" style="" class=""/></g></g></g></g></g></svg>
