<?xml version="1.0"?>
<svg xmlns="http://www.w3.org/2000/svg" xmlns:xlink="http://www.w3.org/1999/xlink" xmlns:svgjs="http://svgjs.com/svgjs" version="1.1" width="512" height="512" x="0" y="0" viewBox="0 0 512 512" style="enable-background:new 0 0 512 512" xml:space="preserve" class=""><g><g xmlns="http://www.w3.org/2000/svg"><path d="m431.042 357.861c-5.818-4.828-9.023-7.488-16.799-7.488-7.774 0-10.979 2.659-16.796 7.487-7.323 6.078-17.354 14.401-35.954 14.401-18.602 0-28.632-8.324-35.955-14.401-5.817-4.828-9.022-7.487-16.797-7.487-7.773 0-10.978 2.659-16.795 7.487-7.323 6.078-17.353 14.402-35.954 14.402s-28.63-8.324-35.954-14.402c-5.817-4.828-9.021-7.487-16.794-7.487-7.774 0-10.979 2.66-16.796 7.487-7.323 6.078-17.354 14.401-35.955 14.401s-28.63-8.324-35.954-14.401c-5.817-4.828-9.021-7.487-16.795-7.487s-10.979 2.66-16.796 7.487c-6.889 5.718-16.179 13.418-32.743 14.311v29.146h415.59v-29.146c-16.569-.89-25.862-8.592-32.753-14.31z" fill="#20ca39" data-original="#000000" style="" class=""/><path d="m130.846 194.775c6.001 4.98 9.307 7.724 17.365 7.724 8.06 0 11.366-2.744 17.367-7.724 7.444-6.178 17.639-14.638 36.525-14.638s29.08 8.461 36.524 14.639c6.001 4.98 9.307 7.724 17.365 7.724 8.059 0 11.365-2.743 17.366-7.724 7.443-6.178 17.638-14.639 36.524-14.639s29.082 8.46 36.525 14.638c6.002 4.98 9.308 7.724 17.367 7.724s11.365-2.744 17.366-7.724c7.163-5.945 16.897-13.981 34.448-14.58v-8.877c0-23.092-15.738-42.568-37.049-48.289v-35.014c9.599-9.177 20.261-22.781 20.261-37.979.002-27.634-35.26-50.036-35.26-50.036s-35.262 22.402-35.262 50.037c0 15.198 10.663 28.803 20.262 37.98v33.301h-77.54v-33.302c9.599-9.177 20.262-22.781 20.262-37.979 0-27.635-35.262-50.037-35.262-50.037s-35.262 22.402-35.262 50.037c0 15.198 10.663 28.803 20.262 37.98v33.302h-77.54v-33.303c9.599-9.177 20.261-22.781 20.261-37.979 0-27.635-35.261-50.037-35.261-50.037s-35.262 22.402-35.262 50.037c0 15.198 10.663 28.803 20.262 37.98v35.012c-21.311 5.721-37.049 25.198-37.049 48.29v8.877c17.542.602 27.273 8.636 34.435 14.579z" fill="#20ca39" data-original="#000000" style="" class=""/><path d="m61.79 334.775c7.323-6.078 17.354-14.401 35.955-14.401s28.631 8.324 35.954 14.401c5.817 4.828 9.021 7.487 16.795 7.487s10.979-2.66 16.796-7.487c7.323-6.078 17.354-14.401 35.955-14.401s28.63 8.324 35.954 14.402c5.817 4.828 9.021 7.487 16.794 7.487 7.774 0 10.979-2.66 16.796-7.487 7.323-6.078 17.353-14.401 35.953-14.401 18.602 0 28.632 8.324 35.955 14.401 5.817 4.828 9.022 7.487 16.797 7.487s10.979-2.659 16.796-7.487c7.323-6.078 17.354-14.401 35.954-14.401 18.602 0 28.633 8.323 35.956 14.401 4.947 4.104 8.014 6.634 13.596 7.303v-30.759c0-26.968-21.464-49.005-48.205-49.954v-51.151c-6.595.45-9.835 3.121-15.29 7.648-7.443 6.178-17.639 14.638-36.524 14.638-18.887 0-29.082-8.46-36.525-14.638-6.002-4.98-9.308-7.724-17.367-7.724s-11.365 2.744-17.366 7.724c-7.443 6.178-17.638 14.638-36.524 14.638s-29.081-8.461-36.524-14.639c-6.001-4.98-9.306-7.724-17.365-7.724-8.06 0-11.366 2.744-17.367 7.724-7.444 6.178-17.639 14.638-36.525 14.638s-29.081-8.46-36.524-14.638c-5.451-4.524-8.69-7.195-15.276-7.647v51.15c-26.741.95-48.206 22.986-48.206 49.954v30.758c5.573-.671 8.639-3.2 13.582-7.302z" fill="#20ca39" data-original="#000000" style="" class=""/><path d="m0 431.318v30h23.63l15.015 50.682h434.711l15.014-50.682h23.63v-30z" fill="#20ca39" data-original="#000000" style="" class=""/></g></g></svg>
