<?xml version="1.0"?>
<svg xmlns="http://www.w3.org/2000/svg" xmlns:xlink="http://www.w3.org/1999/xlink" xmlns:svgjs="http://svgjs.com/svgjs" version="1.1" width="512" height="512" x="0" y="0" viewBox="0 0 512 512" style="enable-background:new 0 0 512 512" xml:space="preserve" class=""><g>
<g xmlns="http://www.w3.org/2000/svg">
	<g>
		<path d="M510.419,357.056c-1.963-3.136-5.397-5.056-9.088-5.056H10.665c-3.691,0-7.125,1.92-9.067,5.056    c-1.941,3.136-2.133,7.061-0.469,10.368C16.105,397.397,46.206,416,79.699,416h352.597c33.472,0,63.573-18.603,78.592-48.555    C512.51,364.117,512.361,360.213,510.419,357.056z" fill="#8400f5" data-original="#000000" style="" class=""/>
	</g>
</g>
<g xmlns="http://www.w3.org/2000/svg">
	<g>
		<path d="M285.246,140.885c1.749-3.947,2.752-8.299,2.752-12.885c0-17.643-14.357-32-32-32s-32,14.357-32,32    c0,4.587,1.003,8.939,2.752,12.885C130.089,154.176,53.758,232,43.966,330.667h424.043    C458.217,232.043,381.865,154.176,285.246,140.885z M246.035,202.645c-59.669,3.947-111.061,42.901-130.88,99.243    c-1.536,4.373-5.675,7.125-10.069,7.125c-1.173,0-2.368-0.192-3.541-0.597c-5.547-1.963-8.469-8.043-6.528-13.611    c22.656-64.427,81.387-108.949,149.611-113.451c5.653-0.363,10.944,4.053,11.349,9.941    C256.361,197.184,251.923,202.261,246.035,202.645z" fill="#8400f5" data-original="#000000" style="" class=""/>
	</g>
</g>
<g xmlns="http://www.w3.org/2000/svg">
</g>
<g xmlns="http://www.w3.org/2000/svg">
</g>
<g xmlns="http://www.w3.org/2000/svg">
</g>
<g xmlns="http://www.w3.org/2000/svg">
</g>
<g xmlns="http://www.w3.org/2000/svg">
</g>
<g xmlns="http://www.w3.org/2000/svg">
</g>
<g xmlns="http://www.w3.org/2000/svg">
</g>
<g xmlns="http://www.w3.org/2000/svg">
</g>
<g xmlns="http://www.w3.org/2000/svg">
</g>
<g xmlns="http://www.w3.org/2000/svg">
</g>
<g xmlns="http://www.w3.org/2000/svg">
</g>
<g xmlns="http://www.w3.org/2000/svg">
</g>
<g xmlns="http://www.w3.org/2000/svg">
</g>
<g xmlns="http://www.w3.org/2000/svg">
</g>
<g xmlns="http://www.w3.org/2000/svg">
</g>
</g></svg>
