<?xml version="1.0"?>
<svg xmlns="http://www.w3.org/2000/svg" xmlns:xlink="http://www.w3.org/1999/xlink" xmlns:svgjs="http://svgjs.com/svgjs" version="1.1" width="512" height="512" x="0" y="0" viewBox="0 0 512 512" style="enable-background:new 0 0 512 512" xml:space="preserve" class=""><g><g xmlns="http://www.w3.org/2000/svg" id="solid"><circle cx="256" cy="256" r="120" fill="#ff0000" data-original="#000000" style="" class=""/><path d="M448,48a32.036,32.036,0,0,0-32,32v27.647a32.016,32.016,0,0,0,19.2,29.332,8,8,0,0,1,4.8,7.33V392a8,8,0,0,0,16,0V144.309a8,8,0,0,1,4.8-7.33A32.016,32.016,0,0,0,480,107.647V80A32.036,32.036,0,0,0,448,48Zm24,51.647a24.027,24.027,0,0,1-24,24,8,8,0,0,1,0-16,8.009,8.009,0,0,0,8-8v-16a8.009,8.009,0,0,0-8-8,8,8,0,1,1,0-16,24.027,24.027,0,0,1,24,24Z" fill="#ff0000" data-original="#000000" style="" class=""/><path d="M256,88C163.364,88,88,163.364,88,256s75.364,168,168,168,168-75.364,168-168S348.636,88,256,88Zm0,304c-74.99,0-136-61.009-136-136s61.01-136,136-136,136,61.009,136,136S330.99,392,256,392Z" fill="#ff0000" data-original="#000000" style="" class=""/><path d="M32,107.017V52a4,4,0,0,1,4-4h0a4,4,0,0,1,4,4V91.373a8.183,8.183,0,0,0,7.467,8.257A8,8,0,0,0,56,91.647V56a8,8,0,0,1,8-8h0a8,8,0,0,1,8,8V91.373a8.183,8.183,0,0,0,7.467,8.257A8,8,0,0,0,88,91.647V52a4,4,0,0,1,4-4h0a4,4,0,0,1,4,4v55.647a32.037,32.037,0,0,1-31.448,31.995C46.651,139.947,32,124.92,32,107.017Z" fill="#ff0000" data-original="#000000" style="" class=""/><path d="M56,96H72a0,0,0,0,1,0,0V392a8,8,0,0,1-8,8h0a8,8,0,0,1-8-8V96a0,0,0,0,1,0,0Z" fill="#ff0000" data-original="#000000" style="" class=""/></g></g></svg>
